<svg xmlns="http://www.w3.org/2000/svg" viewBox="0 0 520.53 520.53"><defs><style>.cls-1{fill:#fff;}</style></defs><title>stamp</title><g id="Layer_2" data-name="Layer 2"><g id="Layer_1-2" data-name="Layer 1"><path class="cls-1" d="M260.26,520.53C116.75,520.53,0,403.77,0,260.26S116.75,0,260.26,0,520.53,116.75,520.53,260.26,403.77,520.53,260.26,520.53Zm0-504.66C125.5,15.87,15.87,125.5,15.87,260.26S125.5,504.66,260.26,504.66,504.66,395,504.66,260.26,395,15.87,260.26,15.87Z"/><path class="cls-1" d="M405.6,225.27A7.93,7.93,0,0,1,400,211.72a64.32,64.32,0,0,0-91-91,7.93,7.93,0,0,1-11.22-11.22,80.18,80.18,0,1,1,113.4,113.4A7.91,7.91,0,0,1,405.6,225.27Z"/><path class="cls-1" d="M209.57,216.95A7.93,7.93,0,0,1,204,203.4l94.26-94.25a7.93,7.93,0,1,1,11.22,11.22l-94.26,94.25A7.91,7.91,0,0,1,209.57,216.95Z"/><path class="cls-1" d="M334.45,371.49a39,39,0,0,1-27.61-66.63,7.94,7.94,0,1,1,11.22,11.22,23.17,23.17,0,0,0,32.77,32.77,7.93,7.93,0,0,1,11.22,11.22A38.91,38.91,0,0,1,334.45,371.49Z"/><path class="cls-1" d="M414.38,362.44a7.91,7.91,0,0,1-5.61-2.32,33,33,0,0,0-46.6,0,7.94,7.94,0,0,1-11.22-11.22,48.88,48.88,0,0,1,69,0,7.93,7.93,0,0,1-5.61,13.55Z"/><path class="cls-1" d="M186.91,226.24a39,39,0,0,1-27.61-66.63,7.93,7.93,0,1,1,11.22,11.22,23.17,23.17,0,1,0,32.77,32.77,7.93,7.93,0,0,1,11.22,11.22A38.91,38.91,0,0,1,186.91,226.24Z"/><path class="cls-1" d="M164.88,173a7.93,7.93,0,0,1-5.61-13.55,33,33,0,0,0,0-46.6,7.93,7.93,0,0,1,11.22-11.22,48.88,48.88,0,0,1,0,69A7.91,7.91,0,0,1,164.88,173Z"/><path class="cls-1" d="M311.74,319.12a7.93,7.93,0,0,1-5.61-13.55l94.26-94.25a7.93,7.93,0,0,1,11.22,11.22L317.35,316.8A7.91,7.91,0,0,1,311.74,319.12Z"/><path class="cls-1" d="M174.28,355.2a7.93,7.93,0,0,1-5.61-13.55l102-102a7.93,7.93,0,0,1,11.22,11.22l-102,102A7.91,7.91,0,0,1,174.28,355.2Z"/><circle class="cls-1" cx="285.88" cy="182.51" r="10.64" transform="translate(-45.33 255.6) rotate(-45)"/><path class="cls-1" d="M285.87,193.94A11.43,11.43,0,1,1,294,190.6h0A11.4,11.4,0,0,1,285.87,193.94Zm0-21.27a9.84,9.84,0,1,0,7,2.88A9.82,9.82,0,0,0,285.88,172.67Z"/><circle class="cls-1" cx="336.66" cy="233.3" r="10.64" transform="translate(-66.36 306.39) rotate(-45)"/><path class="cls-1" d="M336.66,244.74a11.44,11.44,0,1,1,8.09-3.35h0A11.36,11.36,0,0,1,336.66,244.74Zm0-21.28a9.85,9.85,0,1,0,7,16.81h0a9.85,9.85,0,0,0-7-16.81Z"/><path class="cls-1" d="M237.46,342a7.93,7.93,0,0,1-5.6-13.56l64-63.68A7.94,7.94,0,0,1,307.05,276l-64,63.68A7.91,7.91,0,0,1,237.46,342Z"/><path class="cls-1" d="M262.83,403A43.58,43.58,0,0,1,232,328.6a7.94,7.94,0,0,1,11.22,11.22A27.73,27.73,0,0,0,282.44,379a7.93,7.93,0,0,1,11.22,11.22A43.46,43.46,0,0,1,262.83,403Z"/><path class="cls-1" d="M188.32,292.85a7.93,7.93,0,0,1-5.62-13.53l63.68-64a7.94,7.94,0,1,1,11.25,11.2l-63.68,64A7.91,7.91,0,0,1,188.32,292.85Z"/><path class="cls-1" d="M163,303.13a43.58,43.58,0,0,1-30.83-74.41,7.93,7.93,0,0,1,11.22,11.22,27.73,27.73,0,0,0,39.22,39.22,7.93,7.93,0,1,1,11.22,11.22A43.46,43.46,0,0,1,163,303.13Z"/><path class="cls-1" d="M58.64,209.52a10.16,10.16,0,0,0-4,.23,7.68,7.68,0,0,0-3,1.58,8.48,8.48,0,0,0-2,2.67,14.32,14.32,0,0,0-1.17,3.5,12.22,12.22,0,0,0-.23,4,7.49,7.49,0,0,0,1,3,6.11,6.11,0,0,0,1.9,2,7.45,7.45,0,0,0,2.56,1,5.35,5.35,0,0,0,3.35-.24,7,7,0,0,0,2.45-1.91,14.43,14.43,0,0,0,1.9-3q.84-1.75,1.68-3.59t1.82-3.56a12,12,0,0,1,2.3-2.93,8.09,8.09,0,0,1,3.11-1.77,8.59,8.59,0,0,1,4.26,0,8.34,8.34,0,0,1,3.21,1.41,8.53,8.53,0,0,1,2.45,2.73,10.75,10.75,0,0,1,1.28,4,15.3,15.3,0,0,1-.26,5.1,14.43,14.43,0,0,1-1.81,4.81,10.05,10.05,0,0,1-2.89,3.08,9.06,9.06,0,0,1-3.62,1.45,10.91,10.91,0,0,1-4-.09l.62-3a7.75,7.75,0,0,0,3.45,0,6.38,6.38,0,0,0,2.66-1.38A8,8,0,0,0,77.48,226a11.66,11.66,0,0,0,1-3,11.06,11.06,0,0,0,.15-4.22,7.33,7.33,0,0,0-1.21-3,6.08,6.08,0,0,0-2.1-1.84,5.83,5.83,0,0,0-2.58-.67,4.68,4.68,0,0,0-2.88.77,8.51,8.51,0,0,0-2.12,2.19,19.41,19.41,0,0,0-1.7,3.08q-.76,1.71-1.59,3.49t-1.79,3.4A11.28,11.28,0,0,1,60.44,229a7.67,7.67,0,0,1-3.08,1.63,9.09,9.09,0,0,1-4.2,0A8.9,8.9,0,0,1,46.59,226q-1.91-3.74-.72-9.57a16.91,16.91,0,0,1,1.67-4.71,10.86,10.86,0,0,1,2.84-3.45,9.57,9.57,0,0,1,3.92-1.85,11.86,11.86,0,0,1,5,.07Z"/><path class="cls-1" d="M41.75,256.7,76,254.77l.28,4.94L46.71,272.63v.1L77.52,282l.28,4.9-34.23,1.94-.18-3.23,30.52-1.73v-.09l-31.15-9.49-.17-3,29.88-13v-.1l-30.52,1.73Z"/><path class="cls-1" d="M48.76,315.19l36.78,1.86,1.17,3.47L58.39,343.89l-1.06-3.16,8.94-7.17-5-14.8-11.49-.41Zm15.52,3.73,4.27,12.73,14.92-12.09Z"/><path class="cls-1" d="M70.21,367.35l29.1-18.12L101,352,74.26,368.64,84,384.24l-2.34,1.46Z"/><path class="cls-1" d="M98,406.05l24.52-24,2.26,2.32-22.54,22,12.84,13.15-2,1.93Z"/><path class="cls-1" d="M189.06,461.64l.09,0,18.05-24.75,3.09,1.25-21.18,28.41-3.31-1.34,4-31.05-.09,0L171,459.26l-3.31-1.34,4.63-35.1,3,1.22L171,454.35l.09,0,18.5-24.57,3.36,1.35Z"/><path class="cls-1" d="M224.13,475.18l5.44-33.84,3.2.51-5.44,33.84Z"/><path class="cls-1" d="M258.9,448.58h-.09l1.35,29.87-3.24.15-1.55-34.24,3.66-.17,21.14,29h.1l-1.36-29.92,3.24-.15,1.55,34.24-3.76.17Z"/><path class="cls-1" d="M311.12,461.92a10.16,10.16,0,0,0,2.1,3.42,7.69,7.69,0,0,0,2.8,1.87,8.48,8.48,0,0,0,3.31.52,14.28,14.28,0,0,0,3.64-.62,12.15,12.15,0,0,0,3.62-1.68,7.51,7.51,0,0,0,2.15-2.26,6.05,6.05,0,0,0,.83-2.61,7.34,7.34,0,0,0-.3-2.74,5.35,5.35,0,0,0-1.8-2.84,7,7,0,0,0-2.84-1.26,14.32,14.32,0,0,0-3.56-.25q-1.94.08-4,.22t-4,.09a12.22,12.22,0,0,1-3.67-.64,8.09,8.09,0,0,1-3-1.9,8.63,8.63,0,0,1-2.07-3.73,8.38,8.38,0,0,1-.28-3.5,8.53,8.53,0,0,1,1.25-3.46,10.79,10.79,0,0,1,2.9-3,15.39,15.39,0,0,1,4.61-2.18,14.49,14.49,0,0,1,5.09-.68,10.07,10.07,0,0,1,4.08,1.08,9.12,9.12,0,0,1,3,2.5,11,11,0,0,1,1.82,3.58l-3,.89a7.74,7.74,0,0,0-1.64-3,6.37,6.37,0,0,0-2.47-1.69,8.07,8.07,0,0,0-3-.49,11.56,11.56,0,0,0-3.13.49,11.07,11.07,0,0,0-3.79,1.86,7.34,7.34,0,0,0-2.06,2.48,6.05,6.05,0,0,0-.62,2.72,5.87,5.87,0,0,0,.63,2.59,4.67,4.67,0,0,0,2,2.17,8.41,8.41,0,0,0,2.94.83,19.43,19.43,0,0,0,3.52,0q1.87-.14,3.82-.26t3.84,0a11.36,11.36,0,0,1,3.51.68,7.7,7.7,0,0,1,2.89,1.94,9,9,0,0,1,2,3.7,8.91,8.91,0,0,1-1,8q-2.39,3.45-8.09,5.17a17.15,17.15,0,0,1-4.94.77,10.93,10.93,0,0,1-4.39-.87,9.57,9.57,0,0,1-3.49-2.58,11.88,11.88,0,0,1-2.3-4.4Z"/></g></g></svg>