<svg xmlns="http://www.w3.org/2000/svg" viewBox="0 0 968.45 938"><defs><style>.cls-1{fill:#efefef;}.cls-2{fill:#2d2d2d;}.cls-3{fill:#505050;}.cls-4{fill:#484847;}.cls-5{fill:#1f6b9c;}.cls-6{fill:#ea225a;}.cls-6,.cls-7,.cls-9{opacity:0.7;}.cls-7{fill:#22d395;}.cls-8{fill:#1d557c;}.cls-9{fill:#ffda69;}.cls-10{fill:none;stroke:#969696;stroke-miterlimit:10;stroke-width:6px;}</style></defs><title>devices</title><g id="Layer_2" data-name="Layer 2"><g id="Layer_1-2" data-name="Layer 1"><circle class="cls-1" cx="499.45" cy="469" r="469"/><path class="cls-2" d="M329.28,760c0,6,8.05,10.83,17.9,10.83H599.23c9.84,0,17.9-4.87,17.9-10.83l-37.9-286.94H368.08Z"/><path class="cls-3" d="M41.46,95a12.85,12.85,0,0,0-12.81,12.81V629a12.85,12.85,0,0,0,12.81,12.81H714.77V95Z"/><path class="cls-4" d="M904.64,95H472.47V641.82H904.64A12.85,12.85,0,0,0,917.45,629V107.81A12.85,12.85,0,0,0,904.64,95Z"/><rect class="cls-5" x="61.77" y="148.24" width="822.32" height="411.47"/><rect class="cls-6" x="187.67" y="403.95" width="129.78" height="156" transform="translate(505.13 963.89) rotate(180)"/><circle class="cls-1" cx="472.45" cy="600.05" r="19.92"/><rect class="cls-7" x="189.53" y="175.12" width="551.93" height="76.88"/><rect class="cls-7" x="187.45" y="269.06" width="130.37" height="118.88"/><rect class="cls-8" x="333.51" y="269.06" width="129.37" height="118.88"/><rect class="cls-9" x="480.67" y="269.06" width="260.78" height="118.88"/><rect class="cls-7" x="619.18" y="403.95" width="122.28" height="156" transform="translate(1360.63 963.89) rotate(180)"/><path class="cls-3" d="M22.79,448A22.79,22.79,0,0,0,0,470.78V856.54a22.79,22.79,0,0,0,22.79,22.79H172.38V448Z"/><path class="cls-4" d="M208.32,448H116.86V879.34h91.45a22.79,22.79,0,0,0,22.79-22.79V470.78A22.79,22.79,0,0,0,208.32,448Z"/><rect class="cls-5" x="17.57" y="501.57" width="195.97" height="300.96"/><circle class="cls-1" cx="115.55" cy="843.23" r="17.48"/><line class="cls-10" x1="85.9" y1="475.75" x2="148.9" y2="475.75"/><rect class="cls-5" x="500" y="283.64" width="187.45" height="24.21"/><rect class="cls-9" x="41.67" y="706.06" width="154.78" height="96.94"/><rect class="cls-5" x="55.14" y="718.64" width="111.26" height="24.21"/><rect class="cls-5" x="206" y="191.06" width="187.45" height="24.21"/><rect class="cls-7" x="39.96" y="522.12" width="156.49" height="91.88"/><rect class="cls-5" x="58" y="538.06" width="119.45" height="24.21"/><rect class="cls-5" x="58" y="575.06" width="88.45" height="24.21"/><rect class="cls-5" x="206" y="283.64" width="72.45" height="24.21"/><rect class="cls-5" x="634" y="416.79" width="72.45" height="24.21"/><rect class="cls-8" x="40" y="632.06" width="156.45" height="55.94"/><rect class="cls-5" x="351.13" y="416.79" width="155.33" height="24.21"/><rect class="cls-8" x="336.02" y="463.28" width="263.44" height="16.5"/><rect class="cls-8" x="336.02" y="487.81" width="263.44" height="16.5"/><rect class="cls-8" x="336.02" y="512.35" width="203.68" height="16.5"/><rect class="cls-8" x="336.02" y="411.28" width="168.77" height="26.31"/></g></g></svg>